<?xml version="1.0" encoding="iso-8859-1"?>
<!-- Generator: Adobe Illustrator 19.0.0, SVG Export Plug-In . SVG Version: 6.00 Build 0)  -->
<svg version="1.1" id="Layer_1" xmlns="http://www.w3.org/2000/svg" xmlns:xlink="http://www.w3.org/1999/xlink" x="0px" y="0px"
	 viewBox="0 0 512 512" style="enable-background:new 0 0 512 512;" xml:space="preserve">
<path style="fill:#AB7315;" d="M464.051,402.798H47.949v-87.969h416.102L464.051,402.798L464.051,402.798z"/>
<rect x="256" y="314.824" style="fill:#744E12;" width="208.05" height="87.964"/>
<path style="fill:#E05323;" d="M464.051,314.829H47.949v-87.969h416.102L464.051,314.829L464.051,314.829z"/>
<rect x="256" y="226.861" style="fill:#A5401D;" width="208.05" height="87.964"/>
<path style="fill:#F5DC49;" d="M488.385,260.25H23.615v-16.696c0-126.249,102.711-228.961,228.961-228.961h6.849
	c126.249,0,228.961,102.712,228.961,228.961v16.696H488.385z"/>
<path style="fill:#ECAE44;" d="M488.385,243.554c0-126.249-102.711-228.961-228.961-228.961H256V260.25h232.385L488.385,243.554
	L488.385,243.554z"/>
<path style="fill:#C3E825;" d="M447.996,337.09c-18.822,0-28.738-3.449-37.486-6.492c-7.451-2.592-13.336-4.638-26.517-4.638
	c-13.18,0-19.064,2.047-26.516,4.638c-8.749,3.043-18.665,6.492-37.485,6.492c-18.82,0-28.737-3.449-37.485-6.492
	c-7.451-2.592-13.335-4.638-26.515-4.638c-13.178,0-19.063,2.047-26.513,4.638c-8.749,3.043-18.664,6.492-37.483,6.492
	c-18.82,0-28.735-3.449-37.484-6.492c-7.451-2.592-13.335-4.638-26.515-4.638s-19.063,2.047-26.515,4.638
	c-8.749,3.043-18.665,6.492-37.485,6.492s-28.735-3.449-37.484-6.492c-7.45-2.592-13.334-4.638-26.513-4.638v-33.391
	c18.82,0,28.735,3.449,37.484,6.492c7.45,2.592,13.334,4.638,26.513,4.638c13.18,0,19.064-2.047,26.515-4.638
	c8.749-3.043,18.664-6.492,37.484-6.492s28.735,3.449,37.484,6.492c7.451,2.592,13.335,4.638,26.515,4.638
	c13.177,0,19.062-2.047,26.513-4.638c8.749-3.043,18.664-6.492,37.484-6.492s28.735,3.449,37.484,6.492
	c7.451,2.592,13.335,4.638,26.515,4.638c13.18,0,19.064-2.047,26.516-4.638c8.749-3.043,18.665-6.492,37.485-6.492
	c18.822,0,28.738,3.449,37.487,6.492c7.451,2.592,13.336,4.638,26.517,4.638c13.181,0,19.066-2.047,26.517-4.638
	c8.749-3.043,18.666-6.492,37.487-6.492v33.391c-13.181,0-19.066,2.047-26.517,4.638C476.733,333.64,466.817,337.09,447.996,337.09z
	"/>
<path style="fill:#A8DD5E;" d="M319.991,337.09c18.82,0,28.737-3.449,37.485-6.492c7.451-2.592,13.335-4.638,26.516-4.638
	c13.181,0,19.066,2.047,26.517,4.638c8.749,3.043,18.666,6.492,37.486,6.492c18.822,0,28.738-3.449,37.487-6.492
	c7.451-2.592,13.336-4.638,26.517-4.638v-33.391c-18.822,0-28.738,3.449-37.487,6.492c-7.451,2.592-13.336,4.638-26.517,4.638
	c-13.181,0-19.065-2.047-26.517-4.638c-8.749-3.043-18.666-6.492-37.487-6.492s-28.737,3.449-37.485,6.492
	c-7.451,2.592-13.335,4.638-26.516,4.638c-13.18,0-19.064-2.047-26.515-4.638c-8.747-3.042-18.661-6.491-37.475-6.492v33.391
	c13.173,0.001,19.058,2.047,26.506,4.638C291.255,333.64,301.171,337.09,319.991,337.09z"/>
<path style="fill:#F5DC49;" d="M429.765,497.407H82.235c-32.323,0-58.62-26.297-58.62-58.621v-69.379h464.769v69.379
	C488.385,471.11,462.088,497.407,429.765,497.407z"/>
<g>
	<path style="fill:#ECAE44;" d="M429.765,497.407c32.323,0,58.62-26.297,58.62-58.621v-69.379H256v128H429.765z"/>
	<circle style="fill:#ECAE44;" cx="256" cy="66.783" r="16.696"/>
	<circle style="fill:#ECAE44;" cx="197.632" cy="97.792" r="16.696"/>
</g>
<g>
	<circle style="fill:#E89918;" cx="314.368" cy="97.792" r="16.696"/>
	<path style="fill:#E89918;" d="M272.696,66.783c0-9.22-7.475-16.696-16.696-16.696v33.391
		C265.22,83.478,272.696,76.003,272.696,66.783z"/>
</g>
<g>
</g>
<g>
</g>
<g>
</g>
<g>
</g>
<g>
</g>
<g>
</g>
<g>
</g>
<g>
</g>
<g>
</g>
<g>
</g>
<g>
</g>
<g>
</g>
<g>
</g>
<g>
</g>
<g>
</g>
</svg>
